<?xml version="1.0" encoding="utf-8"?>
<!-- Generator: Adobe Illustrator 19.0.0, SVG Export Plug-In . SVG Version: 6.00 Build 0)  -->
<svg version="1.1" id="Layer_1" xmlns="http://www.w3.org/2000/svg" xmlns:xlink="http://www.w3.org/1999/xlink" x="0px" y="0px"
	 viewBox="0 0 303.7 105.5" style="enable-background:new 0 0 303.7 105.5;" xml:space="preserve">
<style type="text/css">
	.st0{fill:#FFFFFF;}
</style>
<g id="XMLID_2_">
	<path id="XMLID_3_" class="st0" d="M42,52.2l0.7-2.7C48.1,28.4,52,14.7,54.4,8.4c0.4-0.9,0.7-1.6,1-2C55.6,5.8,56,5.4,56.3,5
		c0.4-0.4,0.8-0.8,1.4-1.2C59.3,2.6,61.5,2,64.1,2c1.3,0,2.2,0.2,2.5,0.6C67,3,67.1,3.8,67.1,5.2c0,1.1,0,2.2-0.1,3.4
		c-0.2,7.1-0.3,12.2-0.3,15.2c0,7.6,0.3,14.8,0.9,21.6c0.4,3.8,1,7.7,1.7,11.6c0.8,3.5,1.6,6.2,2.3,8c0.9,2.1,1.6,3.6,2.2,4.5
		c0.7,1.3,1.1,2.2,1.1,2.9c0,1.2-0.6,2.9-1.8,5c-2,3.4-4.1,5.1-6.1,5.1c-2.9,0-5.4-2.1-7.8-6.4c-1.2-2.1-2.1-4.3-2.8-6.9
		c-0.7-2.5-1.2-5.6-1.6-9.3s-0.6-8.4-0.7-14.1c-0.2-6.2-0.3-9.7-0.3-10.5h-0.1c-1.4,4.8-2.6,8.8-3.6,12c-1,3.2-1.7,5.9-2.3,8
		c-0.6,2.1-1.3,4.6-2.1,7.5c-2.6,9.4-4.3,15-5.1,16.9c0,0.1-0.1,0.3-0.3,0.5S40.1,81,40,81.2c-0.4,0.6-0.8,1.1-1.3,1.5
		c-0.5,0.3-0.9,0.5-1.3,0.5c-1,0-2-1-3.2-3.1c-1.2-2.1-2.2-4.8-3-8.1c-0.9-3.5-1.6-7-2.2-10.7c-0.6-3.6-1.1-7.9-1.5-12.9
		s-0.8-11.1-1.1-18.2h-0.1c-0.7,2.6-1.2,4.6-1.5,5.9c-0.3,1.3-0.9,3.3-1.6,6.1c-0.7,2.7-1.1,4.3-1.2,4.8c-0.9,3.6-1.9,7.3-2.9,10.9
		c-1,3.7-1.9,6.5-2.5,8.5c-0.6,2-1.3,3.9-2.1,5.9c-0.3,0.9-0.9,2.2-1.8,3.9c-1.3,2.2-2.8,4-4.4,5.2c-1.6,1.3-3.1,1.9-4.5,1.9
		c-0.5,0-1-0.2-1.4-0.7s-0.6-1.1-0.6-1.8c0-0.7,0.3-1.6,0.9-2.7c0.3-0.7,1.1-2.5,2.2-5.5l2-5.3c1.2-3.2,3.1-8.9,5.6-17.1l1.6-5.4
		c3.8-12.8,6.4-21.5,7.8-26.2c1.3-4.7,2-7.4,2-8.2c0-0.8-0.3-1.8-1-2.8c-0.5-0.8-0.8-1.4-0.8-2c0-0.9,0.7-1.7,2-2.5
		C25.3,2.3,26.7,2,28.3,2c3.1,0,5.4,1.2,6.7,3.6c0.8,1.5,1.6,4.5,2.3,8.9c0.7,4.4,1.4,10.8,2.1,19.2c0,0.5,0.1,0.8,0.1,1.1
		c0,0.3,0,0.5,0.1,0.7c0,0.2,0,0.5,0,0.8c0.1,1.1,0.2,1.8,0.2,2.2c0.5,5.1,0.8,8.4,1.1,9.9S41.5,51.1,42,52.2z"/>
	<path id="XMLID_5_" class="st0" d="M103.3,55.3L103.3,55.3L103.3,55.3c-1.8,5.2-3.3,9.5-4.6,12.7c-1.3,3.2-2.5,5.8-3.7,7.9
		c-1.5,2.5-2.9,4.5-4.4,5.8c-1.5,1.3-2.9,2-4.2,2c-2.8,0-4.9-1.5-6.5-4.4s-2.3-7-2.3-12.3c0-6.8,1.1-16.8,3.2-30.1
		c0.7-4.4,1.5-8.5,2.2-12.4c0.8-3.8,1.6-7.6,2.4-11.2c0.9-3.6,1.5-6.2,2-7.7c0.3-1,0.8-1.9,1.4-2.5c0.6-0.6,1.4-1.1,2.5-1.5
		c1.6-0.6,3.2-0.8,4.6-0.8c2.4,0,3.6,1.8,3.6,5.5c0,2.1-0.5,5.1-1.5,9.2c-0.9,3.9-1.7,7.3-2.2,10.1c0,0.2-0.1,0.6-0.2,1.2
		c-0.1,0.6-0.3,1.3-0.4,2.1c-0.4,2.4-1,5.9-1.7,10.7c-0.7,4.8-1.3,8.8-1.7,12.1c-0.4,3.3-0.6,5.5-0.6,6.5c0,1.5,0.2,2.2,0.7,2.2
		c0.5,0,1.7-2.1,3.6-6.2c1.8-3.9,3.8-8.9,6-15c2.2-6,4.1-11.4,5.6-16.1c1-3.1,1.7-5.1,2.1-6.3s0.9-2,1.4-2.6
		c1.2-1.5,2.6-2.3,4.3-2.3c2.1,0,3.1,1.7,3.1,5c0,0.7-0.1,2.1-0.2,4.2c-0.6,8.6-0.9,16.6-0.9,24c0,3.3,0.1,6.3,0.2,9
		c0.1,2.7,0.3,5.3,0.5,7.9c0.2,2.6,0.5,5.3,0.9,8.1c0.5,3.8,0.7,6.2,0.7,7.1c0,0.6-0.1,1.2-0.4,1.8c-0.4,1-1.1,1.7-2.2,2.3
		c-2,1.3-3.5,2-4.6,2c-1.3,0-2.6-0.8-3.7-2.5c-1.2-1.7-2.1-4-2.9-7c-0.9-3.5-1.5-8.1-1.7-13.9C103.4,59.1,103.3,57.5,103.3,55.3z"/>
	<path id="XMLID_7_" class="st0" d="M145.5,72.3c-2.3,3.8-4.4,6.5-6.4,8.2c-2,1.7-4,2.6-6,2.6c-2.4,0-4.4-1-6.2-3
		c-1.7-2-3-4.8-3.9-8.6c-0.9-3.7-1.4-8.1-1.4-13.2c0-6.3,1-12.8,2.9-19.5c1.9-6.7,4.5-12.9,7.7-18.6c3.2-5.7,6.7-10.3,10.5-13.7
		c3.8-3.4,7.5-5.1,11-5.1c5.7,0,8.6,4.4,8.6,13.1c0,3.4-0.5,6.7-1.6,9.9s-2.5,5.8-4.2,7.7c-1.8,1.9-3.6,2.9-5.6,2.9
		c-0.8,0-1.2-0.5-1.2-1.5c0-0.3,0.1-1,0.4-2c0.6-2.1,1.1-4.4,1.4-6.8c0.4-3.5,0.5-6.2,0.5-8c0-3.3-0.2-5-0.7-5c-1.1,0-2.6,1.3-4.5,4
		c-1.9,2.7-3.5,5.5-4.7,8.7c-1.1,2.7-2.1,6-3.1,9.7c-0.9,3.8-1.7,7.6-2.2,11.4c-0.5,3.8-0.8,7.4-0.8,10.6c0,3.1,0.4,5.6,1.1,7.5
		c0.8,2,1.7,2.9,2.9,2.9c2.1,0,4.4-4.6,7-13.7c0.8-2.5,1.4-4.2,1.7-4.8c0.3-0.7,0.7-1.3,1.2-1.9c1.4-1.5,3.2-2.9,5.3-4.1
		c2.2-1.2,3.8-1.8,5-1.8c1.4,0,2.1,1.2,2.1,3.6c0,0.2-0.1,1.1-0.2,2.6c-1.6,11.6-3.6,22.2-5.9,31.9S152,94.9,149.8,99
		c-1,1.9-2.5,3.4-4.4,4.6c-2,1.2-4,1.8-6,1.8c-1.7,0-3.4-0.5-5.1-1.5c-1.7-1-3.2-2.3-4.3-3.8c-1.1-1.5-1.7-3.1-1.7-4.6
		c0-1,0.3-2.1,1-3.4c0.6-1.3,1.5-2.5,2.6-3.8c1.7-2,2.9-3,3.5-3c0.6,0,1.4,1.1,2.5,3.4c1.3,2.6,2.7,4.8,4.1,6.5
		c0.8-3.3,1.6-7.2,2.3-11.9C144.9,78.6,145.4,74.9,145.5,72.3z"/>
	<path id="XMLID_9_" class="st0" d="M176.3,15.2l0.5-2.1c-0.8,0-1.4,0.1-1.9,0.3c-0.5,0.2-1.1,0.6-1.8,1c-0.9,0.6-1.5,0.8-1.8,0.8
		c-0.4,0-0.7-0.3-1-0.8c-0.3-0.5-0.4-1.1-0.4-1.9c0-1.5,0.4-3.1,1.1-4.8c0.7-1.6,1.6-2.8,2.7-3.5c1.4-1,3.1-1.7,5.3-2.3
		c2.2-0.6,4.3-0.9,6.4-0.9c2.4,0,4.5,0.3,6.4,0.9s3.6,1.5,5.1,2.9c1.5,1.3,2.8,2.9,3.9,4.9c1.1,1.9,2,4.2,2.6,6.8
		c0.6,2.6,0.9,5.3,0.9,8.2c0,2.6-0.3,5.5-0.9,8.8c-0.6,3.3-1.4,6.4-2.5,9.5c-1.1,3.1-2.2,5.7-3.5,7.8c-1.5,2.5-3.4,4.6-5.6,6.3
		c-2.3,1.7-4.3,2.6-6.2,2.6c-0.8,0-1.5-0.2-2.1-0.7s-0.9-1.1-0.9-1.8c0-1.1,0.2-2.1,0.7-3.1c0.5-1,1.4-2.2,2.6-3.6
		c1.1-1.1,2.1-2.4,3.1-4c1.1-2.2,2-4.5,2.5-7c0.5-2.5,0.8-5.4,0.8-8.8c0-3.2-0.3-6-1-8.3c-0.6-2.3-1.7-4.3-3.1-6.1L183.5,43
		l-0.9,4.6c-0.4,1.8-0.9,5-1.5,9.4c-1.1,7.6-2.2,13-3.1,15.9c-0.4,1.3-1,2.6-1.7,3.9c-1.1,1.7-2.5,3.1-4.2,4.4s-3.1,1.9-4.3,1.9
		c-0.8,0-1.4-0.4-1.9-1.2s-0.7-2-0.7-3.4c0-1.6,0.2-4,0.7-7.1c0.5-3.1,1.4-8.7,2.9-16.8l0.6-3.3l0.6-3.6L176.3,15.2z"/>
	<path id="XMLID_11_" class="st0" d="M226.7,10.8l-2.1-6.5c0.5-0.7,1-1.2,1.5-1.5c1.8-1,3.9-1.5,6.4-1.5c2.5,0,4.4,1.2,5.8,3.7
		c1.2,2.2,2.2,5.2,2.9,9.2s1.4,9.5,2.1,16.8c0.3,3.7,0.6,6.5,0.9,8.3c0.8,5.2,1.3,8.5,1.6,10c0.3,1.4,0.7,3.8,1.4,6.9
		c0.2,0.9,0.5,2.2,0.9,3.8s0.7,3.2,1.1,4.6c0.8,3.1,1.9,7.2,3.4,12.2c-1.9,2.3-3.5,4-4.9,5.1c-1.3,1-2.5,1.5-3.6,1.5
		c-1.3,0-2.5-0.5-3.4-1.4c-0.9-0.9-1.7-2.4-2.4-4.3c-0.9-2.7-1.7-6.4-2.6-11c-0.1-0.4-0.2-1-0.3-1.7c-0.1-0.7-0.3-1.4-0.4-2.2
		c-2.7,1.9-4.8,2.9-6.2,2.9c-0.8,0-1.6,0-2.2-0.1c-0.5-0.1-3-0.2-7.3-0.4l-0.3,1.2c-1.3,4.7-2.4,8.2-3.5,10.6
		c-1.1,2.4-2.4,4.1-3.8,5.1c-1.4,1-3.2,1.5-5.4,1.5c-1.2,0-2.1-0.2-2.6-0.7c-0.5-0.5-0.8-1.2-0.8-2.3c0-1.3,1.3-4.9,3.8-10.8
		c0.9-2.1,1.6-3.7,2-4.9c-2.4-0.8-3.6-2.3-3.6-4.4c0-1.7,1-4.3,2.9-7.8c0.9-1.7,1.8-2.7,2.5-3.2c0.8-0.5,2.2-0.7,4.1-0.7
		c1.8-5.8,3-9.5,3.5-11.1s1.2-3.6,2-6.1c0.8-2.4,1.7-5.2,2.7-8.3C223.7,20.2,225,16,226.7,10.8z M229.7,26.5l-6.2,23.1h9.2
		l-2.9-23.1H229.7z"/>
	<path id="XMLID_14_" class="st0" d="M254.3,73.5l8.1-47.7c0.6-3.7,1.2-6.3,1.8-7.8c0.4-0.9,0.9-1.6,1.5-2.2v-0.2h-0.5
		c-0.7,0-2,0.7-4.1,2c-2.3,1.4-3.9,2.1-4.8,2.1c-0.5,0-0.8-0.1-0.9-0.4c-0.2-0.3-0.3-0.8-0.3-1.4c0-1.6,0.3-3.3,0.8-5.2
		c0.5-1.9,1.2-3.6,2-5.1c0.8-1.5,1.7-2.6,2.5-3.2c2-1.3,4.7-2.4,8.1-3.2C272,0.4,275.7,0,279.7,0c4.3,0,7.9,1.2,10.9,3.5
		c3,2.3,5.3,5.8,6.9,10.4c1.6,4.6,2.3,10.1,2.3,16.6c0,6.5-0.7,13.1-2.2,19.8c-1.5,6.6-3.5,12.2-5.9,16.7
		c-5.8,10.6-13.5,15.9-23.1,15.9c-3.1,0-5.9-0.4-8.5-1.3c-2.6-0.9-4.3-1.9-5.1-3.2c-0.5-0.7-0.8-1.8-0.8-3.2
		C254.2,74.9,254.2,74.3,254.3,73.5z M277.5,14.4l-6.9,45.2c0,0.3-0.1,1-0.3,2.2c-0.4,3.1-0.9,5.5-1.4,7.3c-0.4,1.3-0.9,2.8-1.7,4.5
		c0.7,0.1,1.4,0.1,2.2,0.1c2,0,3.6-0.2,5-0.7c1.3-0.5,2.6-1.2,3.7-2.3c1.1-1.1,2.2-2.5,3.2-4.3c1.9-3.4,3.3-7.3,4.4-11.7
		s1.5-9.3,1.5-14.4c0-4.8-0.4-9.1-1.2-13c-0.8-3.9-2-6.9-3.4-9.2C281,15.8,279.4,14.6,277.5,14.4z"/>
</g>
<g id="XMLID_55_">
</g>
<g id="XMLID_56_">
</g>
<g id="XMLID_57_">
</g>
<g id="XMLID_58_">
</g>
<g id="XMLID_59_">
</g>
<g id="XMLID_60_">
</g>
<g id="XMLID_61_">
</g>
<g id="XMLID_62_">
</g>
<g id="XMLID_63_">
</g>
<g id="XMLID_64_">
</g>
<g id="XMLID_65_">
</g>
<g id="XMLID_66_">
</g>
<g id="XMLID_67_">
</g>
<g id="XMLID_68_">
</g>
<g id="XMLID_69_">
</g>
</svg>
